<?xml version="1.0" standalone="no"?>
<!DOCTYPE svg PUBLIC "-//W3C//DTD SVG 1.1//EN" "http://www.w3.org/Graphics/SVG/1.1/DTD/svg11.dtd">
<svg version="1.1" width="1200" height="678" onload="init(evt)" viewBox="0 0 1200 678" xmlns="http://www.w3.org/2000/svg" xmlns:xlink="http://www.w3.org/1999/xlink">
<style type="text/css">
	text { font-family:Verdana; font-size:12px; fill:rgb(0,0,0); }
	#search { opacity:0.1; cursor:pointer; }
	#search:hover, #search.show { opacity:1; }
	#subtitle { text-anchor:middle; font-color:rgb(160,160,160); }
	#title { text-anchor:middle; font-size:17px}
	#unzoom { cursor:pointer; }
	#frames > *:hover { stroke:black; stroke-width:0.5; cursor:pointer; }
	.hide { display:none; }
	.parent { opacity:0.5; }
</style>
<script type="text/ecmascript">
<![CDATA[
	"use strict";
	var details, searchbtn, unzoombtn, matchedtxt, svg, searching;
	function init(evt) {
		details = document.getElementById("details").firstChild;
		searchbtn = document.getElementById("search");
		unzoombtn = document.getElementById("unzoom");
		matchedtxt = document.getElementById("matched");
		svg = document.getElementsByTagName("svg")[0];
		searching = 0;
	}

	window.addEventListener("click", function(e) {
		var target = find_group(e.target);
		if (target) {
			if (target.nodeName == "a") {
				if (e.ctrlKey === false) return;
				e.preventDefault();
			}
			if (target.classList.contains("parent")) unzoom();
			zoom(target);
		}
		else if (e.target.id == "unzoom") unzoom();
		else if (e.target.id == "search") search_prompt();
	}, false)

	// mouse-over for info
	// show
	window.addEventListener("mouseover", function(e) {
		var target = find_group(e.target);
		if (target) details.nodeValue = "Function: " + g_to_text(target);
	}, false)

	// clear
	window.addEventListener("mouseout", function(e) {
		var target = find_group(e.target);
		if (target) details.nodeValue = ' ';
	}, false)

	// ctrl-F for search
	window.addEventListener("keydown",function (e) {
		if (e.keyCode === 114 || (e.ctrlKey && e.keyCode === 70)) {
			e.preventDefault();
			search_prompt();
		}
	}, false)

	// functions
	function find_child(node, selector) {
		var children = node.querySelectorAll(selector);
		if (children.length) return children[0];
		return;
	}
	function find_group(node) {
		var parent = node.parentElement;
		if (!parent) return;
		if (parent.id == "frames") return node;
		return find_group(parent);
	}
	function orig_save(e, attr, val) {
		if (e.attributes["_orig_" + attr] != undefined) return;
		if (e.attributes[attr] == undefined) return;
		if (val == undefined) val = e.attributes[attr].value;
		e.setAttribute("_orig_" + attr, val);
	}
	function orig_load(e, attr) {
		if (e.attributes["_orig_"+attr] == undefined) return;
		e.attributes[attr].value = e.attributes["_orig_" + attr].value;
		e.removeAttribute("_orig_"+attr);
	}
	function g_to_text(e) {
		var text = find_child(e, "title").firstChild.nodeValue;
		return (text)
	}
	function g_to_func(e) {
		var func = g_to_text(e);
		// if there's any manipulation we want to do to the function
		// name before it's searched, do it here before returning.
		return (func);
	}
	function update_text(e) {
		var r = find_child(e, "rect");
		var t = find_child(e, "text");
		var w = parseFloat(r.attributes.width.value) -3;
		var txt = find_child(e, "title").textContent.replace(/\([^(]*\)$/,"");
		t.attributes.x.value = parseFloat(r.attributes.x.value) + 3;

		// Smaller than this size won't fit anything
		if (w < 2 * 12 * 0.59) {
			t.textContent = "";
			return;
		}

		t.textContent = txt;
		// Fit in full text width
		if (/^ *$/.test(txt) || t.getSubStringLength(0, txt.length) < w)
			return;

		for (var x = txt.length - 2; x > 0; x--) {
			if (t.getSubStringLength(0, x + 2) <= w) {
				t.textContent = txt.substring(0, x) + "..";
				return;
			}
		}
		t.textContent = "";
	}

	// zoom
	function zoom_reset(e) {
		if (e.attributes != undefined) {
			orig_load(e, "x");
			orig_load(e, "width");
		}
		if (e.childNodes == undefined) return;
		for (var i = 0, c = e.childNodes; i < c.length; i++) {
			zoom_reset(c[i]);
		}
	}
	function zoom_child(e, x, ratio) {
		if (e.attributes != undefined) {
			if (e.attributes.x != undefined) {
				orig_save(e, "x");
				e.attributes.x.value = (parseFloat(e.attributes.x.value) - x - 10) * ratio + 10;
				if (e.tagName == "text")
					e.attributes.x.value = find_child(e.parentNode, "rect[x]").attributes.x.value + 3;
			}
			if (e.attributes.width != undefined) {
				orig_save(e, "width");
				e.attributes.width.value = parseFloat(e.attributes.width.value) * ratio;
			}
		}

		if (e.childNodes == undefined) return;
		for (var i = 0, c = e.childNodes; i < c.length; i++) {
			zoom_child(c[i], x - 10, ratio);
		}
	}
	function zoom_parent(e) {
		if (e.attributes) {
			if (e.attributes.x != undefined) {
				orig_save(e, "x");
				e.attributes.x.value = 10;
			}
			if (e.attributes.width != undefined) {
				orig_save(e, "width");
				e.attributes.width.value = parseInt(svg.width.baseVal.value) - (10 * 2);
			}
		}
		if (e.childNodes == undefined) return;
		for (var i = 0, c = e.childNodes; i < c.length; i++) {
			zoom_parent(c[i]);
		}
	}
	function zoom(node) {
		var attr = find_child(node, "rect").attributes;
		var width = parseFloat(attr.width.value);
		var xmin = parseFloat(attr.x.value);
		var xmax = parseFloat(xmin + width);
		var ymin = parseFloat(attr.y.value);
		var ratio = (svg.width.baseVal.value - 2 * 10) / width;

		// XXX: Workaround for JavaScript float issues (fix me)
		var fudge = 0.0001;

		unzoombtn.classList.remove("hide");

		var el = document.getElementById("frames").children;
		for (var i = 0; i < el.length; i++) {
			var e = el[i];
			var a = find_child(e, "rect").attributes;
			var ex = parseFloat(a.x.value);
			var ew = parseFloat(a.width.value);
			var upstack;
			// Is it an ancestor
			if (0 == 0) {
				upstack = parseFloat(a.y.value) > ymin;
			} else {
				upstack = parseFloat(a.y.value) < ymin;
			}
			if (upstack) {
				// Direct ancestor
				if (ex <= xmin && (ex+ew+fudge) >= xmax) {
					e.classList.add("parent");
					zoom_parent(e);
					update_text(e);
				}
				// not in current path
				else
					e.classList.add("hide");
			}
			// Children maybe
			else {
				// no common path
				if (ex < xmin || ex + fudge >= xmax) {
					e.classList.add("hide");
				}
				else {
					zoom_child(e, xmin, ratio);
					update_text(e);
				}
			}
		}
	}
	function unzoom() {
		unzoombtn.classList.add("hide");
		var el = document.getElementById("frames").children;
		for(var i = 0; i < el.length; i++) {
			el[i].classList.remove("parent");
			el[i].classList.remove("hide");
			zoom_reset(el[i]);
			update_text(el[i]);
		}
	}

	// search
	function reset_search() {
		var el = document.querySelectorAll("#frames rect");
		for (var i = 0; i < el.length; i++) {
			orig_load(el[i], "fill")
		}
	}
	function search_prompt() {
		if (!searching) {
			var term = prompt("Enter a search term (regexp " +
			    "allowed, eg: ^ext4_)", "");
			if (term != null) {
				search(term)
			}
		} else {
			reset_search();
			searching = 0;
			searchbtn.classList.remove("show");
			searchbtn.firstChild.nodeValue = "Search"
			matchedtxt.classList.add("hide");
			matchedtxt.firstChild.nodeValue = ""
		}
	}
	function search(term) {
		var re = new RegExp(term);
		var el = document.getElementById("frames").children;
		var matches = new Object();
		var maxwidth = 0;
		for (var i = 0; i < el.length; i++) {
			var e = el[i];
			var func = g_to_func(e);
			var rect = find_child(e, "rect");
			if (func == null || rect == null)
				continue;

			// Save max width. Only works as we have a root frame
			var w = parseFloat(rect.attributes.width.value);
			if (w > maxwidth)
				maxwidth = w;

			if (func.match(re)) {
				// highlight
				var x = parseFloat(rect.attributes.x.value);
				orig_save(rect, "fill");
				rect.attributes.fill.value = "rgb(230,0,230)";

				// remember matches
				if (matches[x] == undefined) {
					matches[x] = w;
				} else {
					if (w > matches[x]) {
						// overwrite with parent
						matches[x] = w;
					}
				}
				searching = 1;
			}
		}
		if (!searching)
			return;

		searchbtn.classList.add("show");
		searchbtn.firstChild.nodeValue = "Reset Search";

		// calculate percent matched, excluding vertical overlap
		var count = 0;
		var lastx = -1;
		var lastw = 0;
		var keys = Array();
		for (k in matches) {
			if (matches.hasOwnProperty(k))
				keys.push(k);
		}
		// sort the matched frames by their x location
		// ascending, then width descending
		keys.sort(function(a, b){
			return a - b;
		});
		// Step through frames saving only the biggest bottom-up frames
		// thanks to the sort order. This relies on the tree property
		// where children are always smaller than their parents.
		var fudge = 0.0001;	// JavaScript floating point
		for (var k in keys) {
			var x = parseFloat(keys[k]);
			var w = matches[keys[k]];
			if (x >= lastx + lastw - fudge) {
				count += w;
				lastx = x;
				lastw = w;
			}
		}
		// display matched percent
		matchedtxt.classList.remove("hide");
		var pct = 100 * count / maxwidth;
		if (pct != 100) pct = pct.toFixed(1)
		matchedtxt.firstChild.nodeValue = "Matched: " + pct + "%";
	}
]]>
</script>
<rect x="0" y="0" width="100%" height="100%" fill="rgb(240,240,220)"/>
<text id="title" x="600" y="24">Flame Graph</text>
<text id="details" x="10" y="661"> </text>
<text id="unzoom" x="10" y="24" class="hide">Reset Zoom</text>
<text id="search" x="1090" y="24">Search</text>
<text id="matched" x="1090" y="661"> </text>
<g id="frames">
<g>
<title>all (2,159 samples, 100.00%)</title><rect x="10.0" y="627.0" width="1180.0" height="15" fill="#fa7b7b" rx="2" ry="2"/>
<text x="13.0" y="638.0">all</text>
</g>
<g>
<title>[unknown] (1 samples, 0.05%)</title><rect x="10.0" y="611.0" width="0.5" height="15" fill="#ec6969" rx="2" ry="2"/>
<text x="13.0" y="622.0"></text>
</g>
<g>
<title>pthread_cond_timedwait@@GLIBC_2.3.2 (1 samples, 0.05%)</title><rect x="10.0" y="595.0" width="0.5" height="15" fill="#f87979" rx="2" ry="2"/>
<text x="13.0" y="606.0"></text>
</g>
<g>
<title>java/lang/Thread.run (2,152 samples, 99.68%)</title><rect x="10.5" y="611.0" width="1176.2" height="15" fill="#67f867" rx="2" ry="2"/>
<text x="13.5" y="622.0">java/lang/Thread.run</text>
</g>
<g>
<title>java/util/concurrent/ThreadPoolExecutor$Worker.run (2,152 samples, 99.68%)</title><rect x="10.5" y="595.0" width="1176.2" height="15" fill="#6bfc6b" rx="2" ry="2"/>
<text x="13.5" y="606.0">java/util/concurrent/ThreadPoolExecutor$Worker.run</text>
</g>
<g>
<title>java/util/concurrent/ThreadPoolExecutor.runWorker (2,152 samples, 99.68%)</title><rect x="10.5" y="579.0" width="1176.2" height="15" fill="#55e655" rx="2" ry="2"/>
<text x="13.5" y="590.0">java/util/concurrent/ThreadPoolExecutor.runWorker</text>
</g>
<g>
<title>java/util/concurrent/FutureTask.run (2,152 samples, 99.68%)</title><rect x="10.5" y="563.0" width="1176.2" height="15" fill="#5aeb5a" rx="2" ry="2"/>
<text x="13.5" y="574.0">java/util/concurrent/FutureTask.run</text>
</g>
<g>
<title>java/util/concurrent/Executors$RunnableAdapter.call (2,152 samples, 99.68%)</title><rect x="10.5" y="547.0" width="1176.2" height="15" fill="#67f867" rx="2" ry="2"/>
<text x="13.5" y="558.0">java/util/concurrent/Executors$RunnableAdapter.call</text>
</g>
<g>
<title>java/util/concurrent/FutureTask.run (2,152 samples, 99.68%)</title><rect x="10.5" y="531.0" width="1176.2" height="15" fill="#58e958" rx="2" ry="2"/>
<text x="13.5" y="542.0">java/util/concurrent/FutureTask.run</text>
</g>
<g>
<title>org/openjdk/jmh/runner/BenchmarkHandler$BenchmarkTask.call (2,152 samples, 99.68%)</title><rect x="10.5" y="515.0" width="1176.2" height="15" fill="#60f160" rx="2" ry="2"/>
<text x="13.5" y="526.0">org/openjdk/jmh/runner/BenchmarkHandler$BenchmarkTask.call</text>
</g>
<g>
<title>org/openjdk/jmh/runner/BenchmarkHandler$BenchmarkTask.call (2,152 samples, 99.68%)</title><rect x="10.5" y="499.0" width="1176.2" height="15" fill="#5eef5e" rx="2" ry="2"/>
<text x="13.5" y="510.0">org/openjdk/jmh/runner/BenchmarkHandler$BenchmarkTask.call</text>
</g>
<g>
<title>java/lang/reflect/Method.invoke (2,152 samples, 99.68%)</title><rect x="10.5" y="483.0" width="1176.2" height="15" fill="#62f362" rx="2" ry="2"/>
<text x="13.5" y="494.0">java/lang/reflect/Method.invoke</text>
</g>
<g>
<title>jdk/internal/reflect/DelegatingMethodAccessorImpl.invoke (2,152 samples, 99.68%)</title><rect x="10.5" y="467.0" width="1176.2" height="15" fill="#5aeb5a" rx="2" ry="2"/>
<text x="13.5" y="478.0">jdk/internal/reflect/DelegatingMethodAccessorImpl.invoke</text>
</g>
<g>
<title>jdk/internal/reflect/NativeMethodAccessorImpl.invoke (2,152 samples, 99.68%)</title><rect x="10.5" y="451.0" width="1176.2" height="15" fill="#5ff05f" rx="2" ry="2"/>
<text x="13.5" y="462.0">jdk/internal/reflect/NativeMethodAccessorImpl.invoke</text>
</g>
<g>
<title>jdk/internal/reflect/NativeMethodAccessorImpl.invoke0 (2,152 samples, 99.68%)</title><rect x="10.5" y="435.0" width="1176.2" height="15" fill="#6cfd6c" rx="2" ry="2"/>
<text x="13.5" y="446.0">jdk/internal/reflect/NativeMethodAccessorImpl.invoke0</text>
</g>
<g>
<title>me/serce/jmh_generated/CopyFileBenchmark_copyFiles_jmhTest.copyFiles_AverageTime (2,152 samples, 99.68%)</title><rect x="10.5" y="419.0" width="1176.2" height="15" fill="#6bfc6b" rx="2" ry="2"/>
<text x="13.5" y="430.0">me/serce/jmh_generated/CopyFileBenchmark_copyFiles_jmhTest.copyFiles_AverageTime</text>
</g>
<g>
<title>me/serce/jmh_generated/CopyFileBenchmark_copyFiles_jmhTest.copyFiles_avgt_jmhStub (2,152 samples, 99.68%)</title><rect x="10.5" y="403.0" width="1176.2" height="15" fill="#63f463" rx="2" ry="2"/>
<text x="13.5" y="414.0">me/serce/jmh_generated/CopyFileBenchmark_copyFiles_jmhTest.copyFiles_avgt_jmhStub</text>
</g>
<g>
<title>me/serce/CopyFileBenchmark.copyFiles (2,152 samples, 99.68%)</title><rect x="10.5" y="387.0" width="1176.2" height="15" fill="#65f665" rx="2" ry="2"/>
<text x="13.5" y="398.0">me/serce/CopyFileBenchmark.copyFiles</text>
</g>
<g>
<title>sun/nio/ch/FileChannelImpl.read (1,075 samples, 49.79%)</title><rect x="10.5" y="371.0" width="587.6" height="15" fill="#54e554" rx="2" ry="2"/>
<text x="13.5" y="382.0">sun/nio/ch/FileChannelImpl.read</text>
</g>
<g>
<title>sun/nio/ch/IOUtil.read (1,075 samples, 49.79%)</title><rect x="10.5" y="355.0" width="587.6" height="15" fill="#62f362" rx="2" ry="2"/>
<text x="13.5" y="366.0">sun/nio/ch/IOUtil.read</text>
</g>
<g>
<title>java/nio/HeapByteBuffer.put (1,075 samples, 49.79%)</title><rect x="10.5" y="339.0" width="587.6" height="15" fill="#50e150" rx="2" ry="2"/>
<text x="13.5" y="350.0">java/nio/HeapByteBuffer.put</text>
</g>
<g>
<title>java/nio/DirectByteBuffer.get (1,075 samples, 49.79%)</title><rect x="10.5" y="323.0" width="587.6" height="15" fill="#57e857" rx="2" ry="2"/>
<text x="13.5" y="334.0">java/nio/DirectByteBuffer.get</text>
</g>
<g>
<title>jdk/internal/misc/Unsafe.copyMemory (1,075 samples, 49.79%)</title><rect x="10.5" y="307.0" width="587.6" height="15" fill="#54e554" rx="2" ry="2"/>
<text x="13.5" y="318.0">jdk/internal/misc/Unsafe.copyMemory</text>
</g>
<g>
<title>jdk/internal/misc/Unsafe.copyMemory0 (1,075 samples, 49.79%)</title><rect x="10.5" y="291.0" width="587.6" height="15" fill="#68f968" rx="2" ry="2"/>
<text x="13.5" y="302.0">jdk/internal/misc/Unsafe.copyMemory0</text>
</g>
<g>
<title>acl_CopyRight (1,075 samples, 49.79%)</title><rect x="10.5" y="275.0" width="587.6" height="15" fill="#e56060" rx="2" ry="2"/>
<text x="13.5" y="286.0">acl_CopyRight</text>
</g>
<g>
<title>apic_timer_interrupt (5 samples, 0.23%)</title><rect x="595.4" y="259.0" width="2.7" height="15" fill="#ed8900" rx="2" ry="2"/>
<text x="598.4" y="270.0"></text>
</g>
<g>
<title>smp_apic_timer_interrupt (5 samples, 0.23%)</title><rect x="595.4" y="243.0" width="2.7" height="15" fill="#e48000" rx="2" ry="2"/>
<text x="598.4" y="254.0"></text>
</g>
<g>
<title>irq_exit (5 samples, 0.23%)</title><rect x="595.4" y="227.0" width="2.7" height="15" fill="#e48000" rx="2" ry="2"/>
<text x="598.4" y="238.0"></text>
</g>
<g>
<title>__softirqentry_text_start (5 samples, 0.23%)</title><rect x="595.4" y="211.0" width="2.7" height="15" fill="#fe9a00" rx="2" ry="2"/>
<text x="598.4" y="222.0"></text>
</g>
<g>
<title>rcu_core_si (3 samples, 0.14%)</title><rect x="596.4" y="195.0" width="1.7" height="15" fill="#e78300" rx="2" ry="2"/>
<text x="599.4" y="206.0"></text>
</g>
<g>
<title>rcu_core (3 samples, 0.14%)</title><rect x="596.4" y="179.0" width="1.7" height="15" fill="#f08c00" rx="2" ry="2"/>
<text x="599.4" y="190.0"></text>
</g>
<g>
<title>rcu_report_qs_rnp (3 samples, 0.14%)</title><rect x="596.4" y="163.0" width="1.7" height="15" fill="#fa9600" rx="2" ry="2"/>
<text x="599.4" y="174.0"></text>
</g>
<g>
<title>rcu_gp_kthread_wake (3 samples, 0.14%)</title><rect x="596.4" y="147.0" width="1.7" height="15" fill="#f38f00" rx="2" ry="2"/>
<text x="599.4" y="158.0"></text>
</g>
<g>
<title>swake_up_one (3 samples, 0.14%)</title><rect x="596.4" y="131.0" width="1.7" height="15" fill="#e98500" rx="2" ry="2"/>
<text x="599.4" y="142.0"></text>
</g>
<g>
<title>__lock_text_start (3 samples, 0.14%)</title><rect x="596.4" y="115.0" width="1.7" height="15" fill="#f49000" rx="2" ry="2"/>
<text x="599.4" y="126.0"></text>
</g>
<g>
<title>sun/nio/ch/FileChannelImpl.write (1,077 samples, 49.88%)</title><rect x="598.1" y="371.0" width="588.6" height="15" fill="#5ff05f" rx="2" ry="2"/>
<text x="601.1" y="382.0">sun/nio/ch/FileChannelImpl.write</text>
</g>
<g>
<title>sun/nio/ch/IOUtil.write (1,077 samples, 49.88%)</title><rect x="598.1" y="355.0" width="588.6" height="15" fill="#5eef5e" rx="2" ry="2"/>
<text x="601.1" y="366.0">sun/nio/ch/IOUtil.write</text>
</g>
<g>
<title>java/nio/DirectByteBuffer.put (1 samples, 0.05%)</title><rect x="598.1" y="339.0" width="0.5" height="15" fill="#6dfe6d" rx="2" ry="2"/>
<text x="601.1" y="350.0"></text>
</g>
<g>
<title>java/nio/DirectByteBuffer.put (1 samples, 0.05%)</title><rect x="598.1" y="323.0" width="0.5" height="15" fill="#58e958" rx="2" ry="2"/>
<text x="601.1" y="334.0"></text>
</g>
<g>
<title>jdk/internal/misc/Unsafe.copyMemory (1 samples, 0.05%)</title><rect x="598.1" y="307.0" width="0.5" height="15" fill="#67f867" rx="2" ry="2"/>
<text x="601.1" y="318.0"></text>
</g>
<g>
<title>jdk/internal/misc/Unsafe.copyMemory0 (1 samples, 0.05%)</title><rect x="598.1" y="291.0" width="0.5" height="15" fill="#5ff05f" rx="2" ry="2"/>
<text x="601.1" y="302.0"></text>
</g>
<g>
<title>acl_CopyRight (1 samples, 0.05%)</title><rect x="598.1" y="275.0" width="0.5" height="15" fill="#f87878" rx="2" ry="2"/>
<text x="601.1" y="286.0"></text>
</g>
<g>
<title>sun/nio/ch/IOUtil.writeFromNativeBuffer (1,076 samples, 49.84%)</title><rect x="598.6" y="339.0" width="588.1" height="15" fill="#5ced5c" rx="2" ry="2"/>
<text x="601.6" y="350.0">sun/nio/ch/IOUtil.writeFromNativeBuffer</text>
</g>
<g>
<title>sun/nio/ch/FileDispatcherImpl.write (1,076 samples, 49.84%)</title><rect x="598.6" y="323.0" width="588.1" height="15" fill="#6afb6a" rx="2" ry="2"/>
<text x="601.6" y="334.0">sun/nio/ch/FileDispatcherImpl.write</text>
</g>
<g>
<title>sun/nio/ch/FileDispatcherImpl.write0 (1,076 samples, 49.84%)</title><rect x="598.6" y="307.0" width="588.1" height="15" fill="#58e958" rx="2" ry="2"/>
<text x="601.6" y="318.0">sun/nio/ch/FileDispatcherImpl.write0</text>
</g>
<g>
<title>__libc_write (1,075 samples, 49.79%)</title><rect x="599.2" y="291.0" width="587.5" height="15" fill="#eb6868" rx="2" ry="2"/>
<text x="602.2" y="302.0">__libc_write</text>
</g>
<g>
<title>entry_SYSCALL_64_after_hwframe (1,075 samples, 49.79%)</title><rect x="599.2" y="275.0" width="587.5" height="15" fill="#f99500" rx="2" ry="2"/>
<text x="602.2" y="286.0">entry_SYSCALL_64_after_hwframe</text>
</g>
<g>
<title>do_syscall_64 (1,075 samples, 49.79%)</title><rect x="599.2" y="259.0" width="587.5" height="15" fill="#fc9800" rx="2" ry="2"/>
<text x="602.2" y="270.0">do_syscall_64</text>
</g>
<g>
<title>__x64_sys_write (1,075 samples, 49.79%)</title><rect x="599.2" y="243.0" width="587.5" height="15" fill="#e37f00" rx="2" ry="2"/>
<text x="602.2" y="254.0">__x64_sys_write</text>
</g>
<g>
<title>ksys_write (1,075 samples, 49.79%)</title><rect x="599.2" y="227.0" width="587.5" height="15" fill="#fd9900" rx="2" ry="2"/>
<text x="602.2" y="238.0">ksys_write</text>
</g>
<g>
<title>vfs_write (1,075 samples, 49.79%)</title><rect x="599.2" y="211.0" width="587.5" height="15" fill="#f08c00" rx="2" ry="2"/>
<text x="602.2" y="222.0">vfs_write</text>
</g>
<g>
<title>__vfs_write (1,075 samples, 49.79%)</title><rect x="599.2" y="195.0" width="587.5" height="15" fill="#e37f00" rx="2" ry="2"/>
<text x="602.2" y="206.0">__vfs_write</text>
</g>
<g>
<title>new_sync_write (1,075 samples, 49.79%)</title><rect x="599.2" y="179.0" width="587.5" height="15" fill="#e68200" rx="2" ry="2"/>
<text x="602.2" y="190.0">new_sync_write</text>
</g>
<g>
<title>ext4_file_write_iter (1,075 samples, 49.79%)</title><rect x="599.2" y="163.0" width="587.5" height="15" fill="#f49000" rx="2" ry="2"/>
<text x="602.2" y="174.0">ext4_file_write_iter</text>
</g>
<g>
<title>__generic_file_write_iter (1,075 samples, 49.79%)</title><rect x="599.2" y="147.0" width="587.5" height="15" fill="#fb9700" rx="2" ry="2"/>
<text x="602.2" y="158.0">__generic_file_write_iter</text>
</g>
<g>
<title>ext4_da_write_begin (5 samples, 0.23%)</title><rect x="599.2" y="131.0" width="2.7" height="15" fill="#eb8700" rx="2" ry="2"/>
<text x="602.2" y="142.0"></text>
</g>
<g>
<title>ext4_da_write_end (7 samples, 0.32%)</title><rect x="601.9" y="131.0" width="3.8" height="15" fill="#e27e00" rx="2" ry="2"/>
<text x="604.9" y="142.0"></text>
</g>
<g>
<title>generic_perform_write (1,062 samples, 49.19%)</title><rect x="605.7" y="131.0" width="580.5" height="15" fill="#e17d00" rx="2" ry="2"/>
<text x="608.7" y="142.0">generic_perform_write</text>
</g>
<g>
<title>__ext4_journal_start_sb (1 samples, 0.05%)</title><rect x="612.8" y="115.0" width="0.6" height="15" fill="#ee8a00" rx="2" ry="2"/>
<text x="615.8" y="126.0"></text>
</g>
<g>
<title>_cond_resched (1 samples, 0.05%)</title><rect x="613.4" y="115.0" width="0.5" height="15" fill="#e27e00" rx="2" ry="2"/>
<text x="616.4" y="126.0"></text>
</g>
<g>
<title>balance_dirty_pages_ratelimited (6 samples, 0.28%)</title><rect x="613.9" y="115.0" width="3.3" height="15" fill="#e88400" rx="2" ry="2"/>
<text x="616.9" y="126.0"></text>
</g>
<g>
<title>copyin (1 samples, 0.05%)</title><rect x="617.2" y="115.0" width="0.6" height="15" fill="#fe9a00" rx="2" ry="2"/>
<text x="620.2" y="126.0"></text>
</g>
<g>
<title>ext4_da_write_begin (165 samples, 7.64%)</title><rect x="617.8" y="115.0" width="90.1" height="15" fill="#fc9800" rx="2" ry="2"/>
<text x="620.8" y="126.0">ext4_da_wr..</text>
</g>
<g>
<title>__ext4_journal_start_sb (69 samples, 3.20%)</title><rect x="622.1" y="99.0" width="37.7" height="15" fill="#fa9600" rx="2" ry="2"/>
<text x="625.1" y="110.0">__e..</text>
</g>
<g>
<title>ext4_journal_check_start (6 samples, 0.28%)</title><rect x="623.8" y="83.0" width="3.3" height="15" fill="#e88400" rx="2" ry="2"/>
<text x="626.8" y="94.0"></text>
</g>
<g>
<title>_cond_resched (1 samples, 0.05%)</title><rect x="626.0" y="67.0" width="0.5" height="15" fill="#f18d00" rx="2" ry="2"/>
<text x="629.0" y="78.0"></text>
</g>
<g>
<title>rcu_all_qs (1 samples, 0.05%)</title><rect x="626.5" y="67.0" width="0.6" height="15" fill="#ec8800" rx="2" ry="2"/>
<text x="629.5" y="78.0"></text>
</g>
<g>
<title>jbd2__journal_start (60 samples, 2.78%)</title><rect x="627.1" y="83.0" width="32.7" height="15" fill="#f79300" rx="2" ry="2"/>
<text x="630.1" y="94.0">jb..</text>
</g>
<g>
<title>_raw_read_lock (5 samples, 0.23%)</title><rect x="629.2" y="67.0" width="2.8" height="15" fill="#f08c00" rx="2" ry="2"/>
<text x="632.2" y="78.0"></text>
</g>
<g>
<title>kmem_cache_alloc (10 samples, 0.46%)</title><rect x="632.0" y="67.0" width="5.4" height="15" fill="#f59100" rx="2" ry="2"/>
<text x="635.0" y="78.0"></text>
</g>
<g>
<title>_cond_resched (1 samples, 0.05%)</title><rect x="636.3" y="51.0" width="0.6" height="15" fill="#f08c00" rx="2" ry="2"/>
<text x="639.3" y="62.0"></text>
</g>
<g>
<title>rcu_all_qs (1 samples, 0.05%)</title><rect x="636.9" y="51.0" width="0.5" height="15" fill="#e27e00" rx="2" ry="2"/>
<text x="639.9" y="62.0"></text>
</g>
<g>
<title>memcg_kmem_put_cache (1 samples, 0.05%)</title><rect x="637.4" y="67.0" width="0.6" height="15" fill="#ee8a00" rx="2" ry="2"/>
<text x="640.4" y="78.0"></text>
</g>
<g>
<title>memset_erms (3 samples, 0.14%)</title><rect x="638.0" y="67.0" width="1.6" height="15" fill="#fc9800" rx="2" ry="2"/>
<text x="641.0" y="78.0"></text>
</g>
<g>
<title>start_this_handle (37 samples, 1.71%)</title><rect x="639.6" y="67.0" width="20.2" height="15" fill="#fc9800" rx="2" ry="2"/>
<text x="642.6" y="78.0"></text>
</g>
<g>
<title>add_transaction_credits (4 samples, 0.19%)</title><rect x="657.7" y="51.0" width="2.1" height="15" fill="#f69200" rx="2" ry="2"/>
<text x="660.7" y="62.0"></text>
</g>
<g>
<title>_cond_resched (1 samples, 0.05%)</title><rect x="659.8" y="99.0" width="0.6" height="15" fill="#e98500" rx="2" ry="2"/>
<text x="662.8" y="110.0"></text>
</g>
<g>
<title>ext4_block_write_begin (26 samples, 1.20%)</title><rect x="660.4" y="99.0" width="14.2" height="15" fill="#f79300" rx="2" ry="2"/>
<text x="663.4" y="110.0"></text>
</g>
<g>
<title>ext4_nonda_switch (6 samples, 0.28%)</title><rect x="674.6" y="99.0" width="3.3" height="15" fill="#f49000" rx="2" ry="2"/>
<text x="677.6" y="110.0"></text>
</g>
<g>
<title>grab_cache_page_write_begin (49 samples, 2.27%)</title><rect x="677.9" y="99.0" width="26.8" height="15" fill="#eb8700" rx="2" ry="2"/>
<text x="680.9" y="110.0">g..</text>
</g>
<g>
<title>find_get_entry (1 samples, 0.05%)</title><rect x="678.4" y="83.0" width="0.6" height="15" fill="#f59100" rx="2" ry="2"/>
<text x="681.4" y="94.0"></text>
</g>
<g>
<title>pagecache_get_page (46 samples, 2.13%)</title><rect x="679.0" y="83.0" width="25.1" height="15" fill="#e58100" rx="2" ry="2"/>
<text x="682.0" y="94.0">p..</text>
</g>
<g>
<title>find_get_entry (35 samples, 1.62%)</title><rect x="685.0" y="67.0" width="19.1" height="15" fill="#ee8a00" rx="2" ry="2"/>
<text x="688.0" y="78.0"></text>
</g>
<g>
<title>xas_load (15 samples, 0.69%)</title><rect x="695.9" y="51.0" width="8.2" height="15" fill="#fb9700" rx="2" ry="2"/>
<text x="698.9" y="62.0"></text>
</g>
<g>
<title>wait_for_stable_page (1 samples, 0.05%)</title><rect x="704.1" y="83.0" width="0.6" height="15" fill="#f99500" rx="2" ry="2"/>
<text x="707.1" y="94.0"></text>
</g>
<g>
<title>jbd2__journal_start (1 samples, 0.05%)</title><rect x="704.7" y="99.0" width="0.5" height="15" fill="#ea8600" rx="2" ry="2"/>
<text x="707.7" y="110.0"></text>
</g>
<g>
<title>pagecache_get_page (1 samples, 0.05%)</title><rect x="705.2" y="99.0" width="0.6" height="15" fill="#e78300" rx="2" ry="2"/>
<text x="708.2" y="110.0"></text>
</g>
<g>
<title>rcu_all_qs (1 samples, 0.05%)</title><rect x="705.8" y="99.0" width="0.5" height="15" fill="#fb9700" rx="2" ry="2"/>
<text x="708.8" y="110.0"></text>
</g>
<g>
<title>wait_for_stable_page (3 samples, 0.14%)</title><rect x="706.3" y="99.0" width="1.6" height="15" fill="#eb8700" rx="2" ry="2"/>
<text x="709.3" y="110.0"></text>
</g>
<g>
<title>ext4_da_write_end (211 samples, 9.77%)</title><rect x="707.9" y="115.0" width="115.4" height="15" fill="#f59100" rx="2" ry="2"/>
<text x="710.9" y="126.0">ext4_da_write_..</text>
</g>
<g>
<title>__ext4_journal_stop (50 samples, 2.32%)</title><rect x="712.9" y="99.0" width="27.3" height="15" fill="#fd9900" rx="2" ry="2"/>
<text x="715.9" y="110.0">_..</text>
</g>
<g>
<title>jbd2_journal_stop (49 samples, 2.27%)</title><rect x="713.4" y="83.0" width="26.8" height="15" fill="#f28e00" rx="2" ry="2"/>
<text x="716.4" y="94.0">j..</text>
</g>
<g>
<title>__wake_up (22 samples, 1.02%)</title><rect x="722.7" y="67.0" width="12.0" height="15" fill="#f49000" rx="2" ry="2"/>
<text x="725.7" y="78.0"></text>
</g>
<g>
<title>__lock_text_start (2 samples, 0.09%)</title><rect x="722.7" y="51.0" width="1.1" height="15" fill="#fa9600" rx="2" ry="2"/>
<text x="725.7" y="62.0"></text>
</g>
<g>
<title>__wake_up_common_lock (20 samples, 0.93%)</title><rect x="723.8" y="51.0" width="10.9" height="15" fill="#ee8a00" rx="2" ry="2"/>
<text x="726.8" y="62.0"></text>
</g>
<g>
<title>__lock_text_start (14 samples, 0.65%)</title><rect x="726.0" y="35.0" width="7.6" height="15" fill="#fc9800" rx="2" ry="2"/>
<text x="729.0" y="46.0"></text>
</g>
<g>
<title>_raw_spin_lock_irqsave (2 samples, 0.09%)</title><rect x="733.6" y="35.0" width="1.1" height="15" fill="#ec8800" rx="2" ry="2"/>
<text x="736.6" y="46.0"></text>
</g>
<g>
<title>__wake_up_common_lock (1 samples, 0.05%)</title><rect x="734.7" y="67.0" width="0.6" height="15" fill="#f99500" rx="2" ry="2"/>
<text x="737.7" y="78.0"></text>
</g>
<g>
<title>kmem_cache_free (9 samples, 0.42%)</title><rect x="735.3" y="67.0" width="4.9" height="15" fill="#f59100" rx="2" ry="2"/>
<text x="738.3" y="78.0"></text>
</g>
<g>
<title>generic_write_end (141 samples, 6.53%)</title><rect x="740.2" y="99.0" width="77.1" height="15" fill="#fc9800" rx="2" ry="2"/>
<text x="743.2" y="110.0">generic_w..</text>
</g>
<g>
<title>__block_commit_write.isra.0 (2 samples, 0.09%)</title><rect x="744.0" y="83.0" width="1.1" height="15" fill="#ef8b00" rx="2" ry="2"/>
<text x="747.0" y="94.0"></text>
</g>
<g>
<title>block_write_end (132 samples, 6.11%)</title><rect x="745.1" y="83.0" width="72.2" height="15" fill="#e78300" rx="2" ry="2"/>
<text x="748.1" y="94.0">block_wr..</text>
</g>
<g>
<title>__block_commit_write.isra.0 (125 samples, 5.79%)</title><rect x="747.8" y="67.0" width="68.4" height="15" fill="#fd9900" rx="2" ry="2"/>
<text x="750.8" y="78.0">__block..</text>
</g>
<g>
<title>mark_buffer_dirty (93 samples, 4.31%)</title><rect x="765.3" y="51.0" width="50.9" height="15" fill="#fc9800" rx="2" ry="2"/>
<text x="768.3" y="62.0">mark_..</text>
</g>
<g>
<title>mark_buffer_dirty (2 samples, 0.09%)</title><rect x="816.2" y="67.0" width="1.1" height="15" fill="#e58100" rx="2" ry="2"/>
<text x="819.2" y="78.0"></text>
</g>
<g>
<title>unlock_page (11 samples, 0.51%)</title><rect x="817.3" y="99.0" width="6.0" height="15" fill="#fb9700" rx="2" ry="2"/>
<text x="820.3" y="110.0"></text>
</g>
<g>
<title>generic_write_end (2 samples, 0.09%)</title><rect x="823.3" y="115.0" width="1.1" height="15" fill="#f49000" rx="2" ry="2"/>
<text x="826.3" y="126.0"></text>
</g>
<g>
<title>iov_iter_advance (4 samples, 0.19%)</title><rect x="824.4" y="115.0" width="2.1" height="15" fill="#ed8900" rx="2" ry="2"/>
<text x="827.4" y="126.0"></text>
</g>
<g>
<title>iov_iter_copy_from_user_atomic (557 samples, 25.80%)</title><rect x="826.5" y="115.0" width="304.5" height="15" fill="#f38f00" rx="2" ry="2"/>
<text x="829.5" y="126.0">iov_iter_copy_from_user_atomic</text>
</g>
<g>
<title>copy_user_enhanced_fast_string (549 samples, 25.43%)</title><rect x="829.8" y="99.0" width="300.1" height="15" fill="#e98500" rx="2" ry="2"/>
<text x="832.8" y="110.0">copy_user_enhanced_fast_string</text>
</g>
<g>
<title>apic_timer_interrupt (1 samples, 0.05%)</title><rect x="1129.3" y="83.0" width="0.6" height="15" fill="#f89400" rx="2" ry="2"/>
<text x="1132.3" y="94.0"></text>
</g>
<g>
<title>smp_apic_timer_interrupt (1 samples, 0.05%)</title><rect x="1129.3" y="67.0" width="0.6" height="15" fill="#ea8600" rx="2" ry="2"/>
<text x="1132.3" y="78.0"></text>
</g>
<g>
<title>irq_exit (1 samples, 0.05%)</title><rect x="1129.3" y="51.0" width="0.6" height="15" fill="#ee8a00" rx="2" ry="2"/>
<text x="1132.3" y="62.0"></text>
</g>
<g>
<title>__softirqentry_text_start (1 samples, 0.05%)</title><rect x="1129.3" y="35.0" width="0.6" height="15" fill="#e78300" rx="2" ry="2"/>
<text x="1132.3" y="46.0"></text>
</g>
<g>
<title>copyin (2 samples, 0.09%)</title><rect x="1129.9" y="99.0" width="1.1" height="15" fill="#e68200" rx="2" ry="2"/>
<text x="1132.9" y="110.0"></text>
</g>
<g>
<title>iov_iter_fault_in_readable (90 samples, 4.17%)</title><rect x="1131.0" y="115.0" width="49.2" height="15" fill="#e98500" rx="2" ry="2"/>
<text x="1134.0" y="126.0">iov_i..</text>
</g>
<g>
<title>rcu_all_qs (2 samples, 0.09%)</title><rect x="1180.2" y="115.0" width="1.1" height="15" fill="#f18d00" rx="2" ry="2"/>
<text x="1183.2" y="126.0"></text>
</g>
<g>
<title>unlock_page (8 samples, 0.37%)</title><rect x="1181.3" y="115.0" width="4.3" height="15" fill="#ed8900" rx="2" ry="2"/>
<text x="1184.3" y="126.0"></text>
</g>
<g>
<title>wait_for_stable_page (1 samples, 0.05%)</title><rect x="1185.6" y="115.0" width="0.6" height="15" fill="#e68200" rx="2" ry="2"/>
<text x="1188.6" y="126.0"></text>
</g>
<g>
<title>iov_iter_advance (1 samples, 0.05%)</title><rect x="1186.2" y="131.0" width="0.5" height="15" fill="#fc9800" rx="2" ry="2"/>
<text x="1189.2" y="142.0"></text>
</g>
<g>
<title>start_thread (6 samples, 0.28%)</title><rect x="1186.7" y="611.0" width="3.3" height="15" fill="#e45e5e" rx="2" ry="2"/>
<text x="1189.7" y="622.0"></text>
</g>
<g>
<title>thread_native_entry(Thread*) (6 samples, 0.28%)</title><rect x="1186.7" y="595.0" width="3.3" height="15" fill="#e45f5f" rx="2" ry="2"/>
<text x="1189.7" y="606.0"></text>
</g>
<g>
<title>Thread::call_run() (6 samples, 0.28%)</title><rect x="1186.7" y="579.0" width="3.3" height="15" fill="#d6d640" rx="2" ry="2"/>
<text x="1189.7" y="590.0"></text>
</g>
<g>
<title>GangWorker::loop() (1 samples, 0.05%)</title><rect x="1186.7" y="563.0" width="0.6" height="15" fill="#dede43" rx="2" ry="2"/>
<text x="1189.7" y="574.0"></text>
</g>
<g>
<title>ParallelCleaningTask::work(unsigned int) (1 samples, 0.05%)</title><rect x="1186.7" y="547.0" width="0.6" height="15" fill="#e5e545" rx="2" ry="2"/>
<text x="1189.7" y="558.0"></text>
</g>
<g>
<title>nmethod::do_unloading(bool) (1 samples, 0.05%)</title><rect x="1186.7" y="531.0" width="0.6" height="15" fill="#e4e445" rx="2" ry="2"/>
<text x="1189.7" y="542.0"></text>
</g>
<g>
<title>CompiledMethod::unload_nmethod_caches(bool) (1 samples, 0.05%)</title><rect x="1186.7" y="515.0" width="0.6" height="15" fill="#dcdc42" rx="2" ry="2"/>
<text x="1189.7" y="526.0"></text>
</g>
<g>
<title>CompiledMethod::cleanup_inline_caches_impl(bool, bool) (1 samples, 0.05%)</title><rect x="1186.7" y="499.0" width="0.6" height="15" fill="#d3d33f" rx="2" ry="2"/>
<text x="1189.7" y="510.0"></text>
</g>
<g>
<title>JavaThread::run() (5 samples, 0.23%)</title><rect x="1187.3" y="563.0" width="2.7" height="15" fill="#dede43" rx="2" ry="2"/>
<text x="1190.3" y="574.0"></text>
</g>
<g>
<title>CompileBroker::compiler_thread_loop() (5 samples, 0.23%)</title><rect x="1187.3" y="547.0" width="2.7" height="15" fill="#d3d33f" rx="2" ry="2"/>
<text x="1190.3" y="558.0"></text>
</g>
<g>
<title>CompileBroker::invoke_compiler_on_method(CompileTask*) (5 samples, 0.23%)</title><rect x="1187.3" y="531.0" width="2.7" height="15" fill="#d0d03e" rx="2" ry="2"/>
<text x="1190.3" y="542.0"></text>
</g>
<g>
<title>C2Compiler::compile_method(ciEnv*, ciMethod*, int, DirectiveSet*) (5 samples, 0.23%)</title><rect x="1187.3" y="515.0" width="2.7" height="15" fill="#cece3e" rx="2" ry="2"/>
<text x="1190.3" y="526.0"></text>
</g>
<g>
<title>Compile::Compile(ciEnv*, C2Compiler*, ciMethod*, int, bool, bool, bool, DirectiveSet*) (5 samples, 0.23%)</title><rect x="1187.3" y="499.0" width="2.7" height="15" fill="#d9d941" rx="2" ry="2"/>
<text x="1190.3" y="510.0"></text>
</g>
<g>
<title>Compile::Code_Gen() (3 samples, 0.14%)</title><rect x="1187.3" y="483.0" width="1.6" height="15" fill="#cfcf3e" rx="2" ry="2"/>
<text x="1190.3" y="494.0"></text>
</g>
<g>
<title>Matcher::match() (1 samples, 0.05%)</title><rect x="1187.3" y="467.0" width="0.5" height="15" fill="#cccc3d" rx="2" ry="2"/>
<text x="1190.3" y="478.0"></text>
</g>
<g>
<title>Matcher::xform(Node*, int) (1 samples, 0.05%)</title><rect x="1187.3" y="451.0" width="0.5" height="15" fill="#dddd43" rx="2" ry="2"/>
<text x="1190.3" y="462.0"></text>
</g>
<g>
<title>PhaseCFG::do_global_code_motion() (1 samples, 0.05%)</title><rect x="1187.8" y="467.0" width="0.6" height="15" fill="#cbcb3d" rx="2" ry="2"/>
<text x="1190.8" y="478.0"></text>
</g>
<g>
<title>PhaseCFG::global_code_motion() (1 samples, 0.05%)</title><rect x="1187.8" y="451.0" width="0.6" height="15" fill="#dfdf43" rx="2" ry="2"/>
<text x="1190.8" y="462.0"></text>
</g>
<g>
<title>PhaseCFG::schedule_local(Block*, GrowableArray&lt;int&gt;&amp;, VectorSet&amp;, long*) (1 samples, 0.05%)</title><rect x="1187.8" y="435.0" width="0.6" height="15" fill="#cccc3d" rx="2" ry="2"/>
<text x="1190.8" y="446.0"></text>
</g>
<g>
<title>PhaseCFG::adjust_register_pressure(Node*, Block*, long*, bool) (1 samples, 0.05%)</title><rect x="1187.8" y="419.0" width="0.6" height="15" fill="#dede43" rx="2" ry="2"/>
<text x="1190.8" y="430.0"></text>
</g>
<g>
<title>PhaseChaitin::Register_Allocate() (1 samples, 0.05%)</title><rect x="1188.4" y="467.0" width="0.5" height="15" fill="#caca3c" rx="2" ry="2"/>
<text x="1191.4" y="478.0"></text>
</g>
<g>
<title>PhaseIFG::Compute_Effective_Degree() (1 samples, 0.05%)</title><rect x="1188.4" y="451.0" width="0.5" height="15" fill="#e4e445" rx="2" ry="2"/>
<text x="1191.4" y="462.0"></text>
</g>
<g>
<title>IndexSetIterator::advance_and_next() (1 samples, 0.05%)</title><rect x="1188.4" y="435.0" width="0.5" height="15" fill="#c9c93c" rx="2" ry="2"/>
<text x="1191.4" y="446.0"></text>
</g>
<g>
<title>Compile::Init(int) (1 samples, 0.05%)</title><rect x="1188.9" y="483.0" width="0.6" height="15" fill="#d7d741" rx="2" ry="2"/>
<text x="1191.9" y="494.0"></text>
</g>
<g>
<title>ciMethod::has_loops() const (1 samples, 0.05%)</title><rect x="1188.9" y="467.0" width="0.6" height="15" fill="#cdcd3d" rx="2" ry="2"/>
<text x="1191.9" y="478.0"></text>
</g>
<g>
<title>Method::compute_has_loops_flag() (1 samples, 0.05%)</title><rect x="1188.9" y="451.0" width="0.6" height="15" fill="#cfcf3e" rx="2" ry="2"/>
<text x="1191.9" y="462.0"></text>
</g>
<g>
<title>ciMethod::ensure_method_data() (1 samples, 0.05%)</title><rect x="1189.5" y="483.0" width="0.5" height="15" fill="#dfdf43" rx="2" ry="2"/>
<text x="1192.5" y="494.0"></text>
</g>
<g>
<title>ciMethod::ensure_method_data(methodHandle const&amp;) (1 samples, 0.05%)</title><rect x="1189.5" y="467.0" width="0.5" height="15" fill="#dddd43" rx="2" ry="2"/>
<text x="1192.5" y="478.0"></text>
</g>
<g>
<title>ciMethodData::load_data() (1 samples, 0.05%)</title><rect x="1189.5" y="451.0" width="0.5" height="15" fill="#dbdb42" rx="2" ry="2"/>
<text x="1192.5" y="462.0"></text>
</g>
<g>
<title>ciMethodData::load_extra_data() (1 samples, 0.05%)</title><rect x="1189.5" y="435.0" width="0.5" height="15" fill="#e5e545" rx="2" ry="2"/>
<text x="1192.5" y="446.0"></text>
</g>
<g>
<title>ciMethodData::prepare_metadata() (1 samples, 0.05%)</title><rect x="1189.5" y="419.0" width="0.5" height="15" fill="#dbdb42" rx="2" ry="2"/>
<text x="1192.5" y="430.0"></text>
</g>
<g>
<title>MethodData::clean_extra_data(CleanExtraDataClosure*) (1 samples, 0.05%)</title><rect x="1189.5" y="403.0" width="0.5" height="15" fill="#dede43" rx="2" ry="2"/>
<text x="1192.5" y="414.0"></text>
</g>
</g>
</svg>
